<?xml version="1.0" encoding="UTF-8" standalone="no"?>
<!-- Created with Inkscape (http://www.inkscape.org/) -->

<svg
   width="210mm"
   height="297mm"
   viewBox="0 0 210 297"
   version="1.1"
   id="svg5"
   sodipodi:docname="fig2.svg"
   inkscape:version="1.2.2 (b0a8486541, 2022-12-01)"
   inkscape:export-filename="fig2.pdf"
   inkscape:export-xdpi="96"
   inkscape:export-ydpi="96"
   xmlns:inkscape="http://www.inkscape.org/namespaces/inkscape"
   xmlns:sodipodi="http://sodipodi.sourceforge.net/DTD/sodipodi-0.dtd"
   xmlns="http://www.w3.org/2000/svg"
   xmlns:svg="http://www.w3.org/2000/svg">
  <sodipodi:namedview
     id="namedview7"
     pagecolor="#ffffff"
     bordercolor="#999999"
     borderopacity="1"
     inkscape:showpageshadow="0"
     inkscape:pageopacity="0"
     inkscape:pagecheckerboard="0"
     inkscape:deskcolor="#d1d1d1"
     inkscape:document-units="mm"
     showgrid="false"
     inkscape:zoom="4.2230386"
     inkscape:cx="243.30822"
     inkscape:cy="78.853175"
     inkscape:window-width="1920"
     inkscape:window-height="1008"
     inkscape:window-x="0"
     inkscape:window-y="0"
     inkscape:window-maximized="1"
     inkscape:current-layer="layer1"
     showguides="false" />
  <defs
     id="defs2">
    <marker
       style="overflow:visible"
       id="marker4165"
       refX="0"
       refY="0"
       orient="auto-start-reverse"
       inkscape:stockid="RoundedArrow"
       markerWidth="3.135"
       markerHeight="3.0306199"
       viewBox="0 0 6.1347524 5.9304951"
       inkscape:isstock="true"
       inkscape:collect="always"
       preserveAspectRatio="xMidYMid">
      <path
         d="m 3.4825543,-2.873901 -4.4956038,2.24780197 a 0.7,0.7 0 0 0 0,1.25219806 L 3.4825543,2.873901 A 0.8652476,0.8652476 0 0 0 4.7347524,2.1 V -2.1 A 0.8652476,0.8652476 0 0 0 3.4825543,-2.873901 Z"
         style="fill:context-stroke;fill-rule:evenodd;stroke:none;stroke-width:0.7"
         id="path4163" />
    </marker>
    <marker
       style="overflow:visible"
       id="RoundedArrow"
       refX="0"
       refY="0"
       orient="0"
       inkscape:stockid="RoundedArrow"
       markerWidth="3.135"
       markerHeight="3.0306199"
       viewBox="0 0 6.1347524 5.9304953"
       inkscape:isstock="true"
       inkscape:collect="always"
       preserveAspectRatio="xMidYMid">
      <path
         d="m -0.14780188,-2.873901 4.49560378,2.24780197 a 0.7,0.7 0 0 1 0,1.25219806 L -0.14780188,2.873901 A 0.8652476,0.8652476 0 0 1 -1.4,2.1 v -4.2 a 0.8652476,0.8652476 0 0 1 1.25219812,-0.773901 z"
         style="fill:context-stroke;fill-rule:evenodd;stroke:none;stroke-width:0.7"
         id="path1367" />
    </marker>
    <clipPath
       id="clipPath5123">
      <path
         clip-rule="nonzero"
         d="M 0,0 H 7 V 8.167969 H 0 Z m 0,0"
         id="path9699" />
    </clipPath>
    <clipPath
       id="clipPath5123-1">
      <path
         clip-rule="nonzero"
         d="M 0,0 H 7 V 8.167969 H 0 Z m 0,0"
         id="path9699-2" />
    </clipPath>
    <clipPath
       id="clipPath5123-1-0">
      <path
         clip-rule="nonzero"
         d="M 0,0 H 7 V 8.167969 H 0 Z m 0,0"
         id="path9699-2-6" />
    </clipPath>
    <clipPath
       id="clipPath6929">
      <path
         clip-rule="nonzero"
         d="M 0,0 H 7.894531 V 8.167969 H 0 Z m 0,0"
         id="path9141" />
    </clipPath>
    <clipPath
       id="clipPath6522">
      <path
         clip-rule="nonzero"
         d="M 0,0 H 9 V 7.804688 H 0 Z m 0,0"
         id="path2742" />
    </clipPath>
    <clipPath
       id="clipPath6522-9">
      <path
         clip-rule="nonzero"
         d="M 0,0 H 9 V 7.804688 H 0 Z m 0,0"
         id="path2742-2" />
    </clipPath>
  </defs>
  <g
     inkscape:label="Layer 1"
     inkscape:groupmode="layer"
     id="layer1"
     style="display:inline">
    <g
       id="g4843"
       transform="translate(-3.1750001)" />
    <g
       id="g4807"
       transform="translate(-59.266663)">
      <path
         style="fill:none;stroke:#000000;stroke-width:0.3;stroke-linecap:butt;stroke-linejoin:miter;stroke-miterlimit:4;stroke-dasharray:none;stroke-opacity:1;marker-mid:url(#RoundedArrow)"
         d="m 96.803686,35.26432 h 3.970164 c 4.21859,0 8.43719,0 12.65578,0 h 3.37406"
         id="path337-3-5"
         sodipodi:nodetypes="cccc" />
      <rect
         style="fill:#999999;fill-opacity:1;stroke:#000000;stroke-width:0.3;stroke-miterlimit:4;stroke-dasharray:none;stroke-dashoffset:0;stroke-opacity:1"
         id="rect3101"
         width="5.7579269"
         height="5.7579269"
         x="103.97718"
         y="29.481483" />
      <g
         inkscape:label=""
         transform="translate(105.86666,30.966998)"
         id="g3614">
        <g
           clip-path="url(#clipPath5123)"
           id="g16"
           transform="matrix(0.352778,0,0,0.352778,-0.170877,-0.01001)">
          <g
             fill="#000000"
             fill-opacity="1"
             id="g14">
            <g
               id="use12"
               transform="translate(0,8.1689997)">
              <path
                 d="M 6.5,-8.140625 H 0.484375 v 0.34375 h 0.25 c 0.859375,0 0.890625,0.125 0.890625,0.5625 v 6.328125 c 0,0.4375 -0.03125,0.5625 -0.890625,0.5625 h -0.25 V 0 c 0.296875,-0.03125 1.359375,-0.03125 1.71875,-0.03125 0.421875,0 1.46875,0 1.8125,0.03125 V -0.34375 H 3.65625 c -1.03125,0 -1.0625,-0.140625 -1.0625,-0.578125 V -7.3125 c 0,-0.390625 0.03125,-0.484375 0.546875,-0.484375 h 1.28125 c 1.65625,0 1.96875,0.65625 2.125,2.328125 H 6.8125 Z m 0,0"
                 id="path22" />
            </g>
          </g>
        </g>
      </g>
    </g>
    <path
       style="fill:none;stroke:#000000;stroke-width:0.3;stroke-linecap:butt;stroke-linejoin:round;stroke-miterlimit:3.9;stroke-dasharray:none;stroke-opacity:1;marker-mid:url(#RoundedArrow)"
       d="m 95.945624,35.290834 h 2.825821 2.878515"
       id="path3202" />
    <path
       style="fill:none;stroke:#000000;stroke-width:0.3;stroke-linecap:butt;stroke-linejoin:round;stroke-miterlimit:3.9;stroke-dasharray:none;stroke-opacity:1"
       d="M 73.954658,35.290834 H 86.016532 95.00585"
       id="path3200" />
    <path
       style="fill:none;stroke:#000000;stroke-width:0.3;stroke-linecap:butt;stroke-linejoin:round;stroke-miterlimit:3.9;stroke-dasharray:none;stroke-opacity:1;marker-mid:url(#RoundedArrow)"
       d="m 66.649996,35.290834 h 3.12551 3.223704"
       id="path337" />
    <g
       id="g1031"
       transform="translate(1.5874998)">
      <ellipse
         style="fill:#999999;fill-opacity:1;stroke:#000000;stroke-width:0.4;stroke-dasharray:0.799998, 0.4;stroke-dashoffset:0;stroke-opacity:1"
         id="path1007"
         cx="82.985596"
         cy="34.988834"
         rx="4.8844843"
         ry="4.8852854" />
      <g
         inkscape:label=""
         transform="translate(81.553373,33.49141)"
         id="g4409">
        <g
           clip-path="url(#clipPath6929)"
           id="g4407"
           transform="matrix(0.352778,0,0,0.352778,-0.214974,0.0892088)">
          <g
             fill="#000000"
             fill-opacity="1"
             id="g4405">
            <g
               id="g4403"
               transform="translate(0,8.1689997)">
              <path
                 d="m 7.59375,-8.3125 c 0,-0.109375 -0.09375,-0.109375 -0.109375,-0.109375 -0.046875,0 -0.0625,0.015625 -0.203125,0.203125 C 7.203125,-8.140625 6.71875,-7.515625 6.703125,-7.5 6.3125,-8.28125 5.515625,-8.421875 5.015625,-8.421875 3.5,-8.421875 2.125,-7.03125 2.125,-5.671875 2.125,-4.78125 2.671875,-4.25 3.25,-4.046875 3.375,-4 4.09375,-3.8125 4.453125,-3.734375 5.0625,-3.5625 5.21875,-3.515625 5.46875,-3.25 5.515625,-3.1875 5.75,-2.921875 5.75,-2.359375 5.75,-1.25 4.71875,-0.09375 3.53125,-0.09375 c -0.984375,0 -2.078125,-0.421875 -2.078125,-1.765625 0,-0.21875 0.046875,-0.5 0.09375,-0.625 0,-0.03125 0,-0.09375 0,-0.125 0,-0.046875 -0.015625,-0.109375 -0.109375,-0.109375 -0.109375,0 -0.125,0.03125 -0.171875,0.234375 L 0.65625,-0.03125 c 0,0 -0.046875,0.15625 -0.046875,0.171875 C 0.609375,0.25 0.703125,0.25 0.734375,0.25 0.78125,0.25 0.78125,0.234375 0.9375,0.0625 L 1.484375,-0.65625 C 1.765625,-0.234375 2.390625,0.25 3.5,0.25 c 1.546875,0 2.953125,-1.5 2.953125,-2.984375 0,-0.5 -0.125,-0.953125 -0.578125,-1.390625 -0.25,-0.25 -0.453125,-0.3125 -1.5625,-0.59375 -0.796875,-0.21875 -0.90625,-0.25 -1.125,-0.4375 -0.203125,-0.203125 -0.359375,-0.5 -0.359375,-0.90625 0,-1 1.015625,-2.03125 2.15625,-2.03125 1.171875,0 1.71875,0.71875 1.71875,1.859375 0,0.3125 -0.0625,0.625 -0.0625,0.671875 0,0.109375 0.09375,0.109375 0.140625,0.109375 0.109375,0 0.109375,-0.03125 0.15625,-0.21875 z m 0,0"
                 id="path4401" />
            </g>
          </g>
        </g>
      </g>
    </g>
    <g
       inkscape:label=""
       transform="translate(60.880309,35.022704)"
       id="g4753">
      <g
         fill="#000000"
         fill-opacity="1"
         id="g11"
         transform="matrix(0.352778,0,0,0.352778,-0.225998,-8.81966e-4)">
        <g
           id="use9"
           transform="translate(0,4.3150001)">
          <path
             d="m 8.0625,-3.875 c 0.171875,0 0.390625,0 0.390625,-0.21875 C 8.453125,-4.3125 8.25,-4.3125 8.0625,-4.3125 H 1.03125 c -0.171875,0 -0.390625,0 -0.390625,0.21875 0,0.21875 0.203125,0.21875 0.390625,0.21875 z m 0,2.21875 c 0.171875,0 0.390625,0 0.390625,-0.203125 C 8.453125,-2.09375 8.25,-2.09375 8.0625,-2.09375 H 1.03125 c -0.171875,0 -0.390625,0 -0.390625,0.21875 0,0.21875 0.203125,0.21875 0.390625,0.21875 z m 0,0"
             id="path17" />
        </g>
      </g>
    </g>
    <path
       style="display:inline;fill:#ffffff;fill-opacity:0;stroke:#000000;stroke-width:0.3;marker-mid:url(#RoundedArrow)"
       d="m 73.853314,35.441777 c 0,-5.819797 4.872933,-10.691943 10.69273,-10.691943 5.819796,1e-6 10.600318,4.849997 10.600318,10.669793"
       id="path1085"
       sodipodi:nodetypes="csc" />
    <path
       id="path2719"
       style="display:inline;fill:#ffffff;fill-opacity:0;stroke:#000000;stroke-width:0.3;marker-mid:url(#marker4165)"
       d="m 73.061255,35.4349 c 0,-6.27815 5.166976,-11.455412 11.472409,-11.450158 6.305434,0.0053 11.281105,5.197161 11.281105,11.475312"
       sodipodi:nodetypes="ccc" />
  </g>
</svg>
