<?xml version="1.0" encoding="UTF-8" standalone="no"?>
<!-- Created with Inkscape (http://www.inkscape.org/) -->

<svg
   sodipodi:docname="fig4-1.svg"
   inkscape:version="1.2.2 (b0a8486541, 2022-12-01)"
   id="svg5"
   version="1.1"
   viewBox="0 0 210 297"
   height="297mm"
   width="210mm"
   inkscape:export-filename="fig4-2.pdf"
   inkscape:export-xdpi="96"
   inkscape:export-ydpi="96"
   xmlns:inkscape="http://www.inkscape.org/namespaces/inkscape"
   xmlns:sodipodi="http://sodipodi.sourceforge.net/DTD/sodipodi-0.dtd"
   xmlns="http://www.w3.org/2000/svg"
   xmlns:svg="http://www.w3.org/2000/svg">
  <sodipodi:namedview
     id="namedview7"
     pagecolor="#ffffff"
     bordercolor="#999999"
     borderopacity="1"
     inkscape:showpageshadow="0"
     inkscape:pageopacity="0"
     inkscape:pagecheckerboard="0"
     inkscape:deskcolor="#d1d1d1"
     inkscape:document-units="mm"
     showgrid="false"
     inkscape:zoom="2.56"
     inkscape:cx="309.96094"
     inkscape:cy="189.45313"
     inkscape:window-width="1920"
     inkscape:window-height="1008"
     inkscape:window-x="0"
     inkscape:window-y="0"
     inkscape:window-maximized="1"
     inkscape:current-layer="layer1" />
  <defs
     id="defs2">
    <marker
       style="overflow:visible"
       id="Arrow3"
       refX="0"
       refY="0"
       orient="auto-start-reverse"
       inkscape:stockid="Arrow3"
       markerWidth="4.2071066"
       markerHeight="6.9999995"
       viewBox="0 0 4.2071068 7"
       inkscape:isstock="true"
       inkscape:collect="always"
       preserveAspectRatio="xMidYMid">
      <path
         style="fill:none;stroke:context-stroke;stroke-width:1;stroke-linecap:round"
         d="M 3,-3 0,0 3,3"
         id="arrow3"
         transform="rotate(180,0.125,0)"
         sodipodi:nodetypes="ccc" />
    </marker>
    <clipPath
       id="clipPath9262">
      <path
         clip-rule="nonzero"
         d="M 0,0 H 12 V 6.808594 H 0 Z m 0,0"
         id="path3943" />
    </clipPath>
    <clipPath
       id="clipPath7652">
      <path
         clip-rule="nonzero"
         d="m 12,2 h 5 v 4.808594 h -5 z m 0,0"
         id="path5185" />
    </clipPath>
    <clipPath
       id="clipPath5690">
      <path
         clip-rule="nonzero"
         d="M 0,0 H 12 V 6.808594 H 0 Z m 0,0"
         id="path8540" />
    </clipPath>
    <clipPath
       id="clipPath5321">
      <path
         clip-rule="nonzero"
         d="m 12,2 h 5.453125 V 6.808594 H 12 Z m 0,0"
         id="path4450" />
    </clipPath>
    <clipPath
       id="clipPath9331">
      <path
         clip-rule="nonzero"
         d="M 0,0 H 5.554688 V 4.289062 H 0 Z m 0,0"
         id="path8042" />
    </clipPath>
    <clipPath
       id="clipPath5232">
      <path
         clip-rule="nonzero"
         d="m 8,0 h 7 V 7.402344 H 8 Z m 0,0"
         id="path1263" />
    </clipPath>
    <clipPath
       id="clipPath5788">
      <path
         clip-rule="nonzero"
         d="m 17,2 h 4 v 12.3125 h -4 z m 0,0"
         id="path5480" />
    </clipPath>
    <clipPath
       id="clipPath4394">
      <path
         clip-rule="nonzero"
         d="m 27,2 h 4 v 12.3125 h -4 z m 0,0"
         id="path2464" />
    </clipPath>
    <clipPath
       id="clipPath9218">
      <path
         clip-rule="nonzero"
         d="m 7,2 h 7 v 9.925781 H 7 Z m 0,0"
         id="path7630" />
    </clipPath>
    <clipPath
       id="clipPath8757">
      <path
         clip-rule="nonzero"
         d="m 14,1 h 3 v 10.925781 h -3 z m 0,0"
         id="path7464" />
    </clipPath>
    <clipPath
       id="clipPath9736">
      <path
         clip-rule="nonzero"
         d="m 23,1 h 3 v 10.925781 h -3 z m 0,0"
         id="path2994" />
    </clipPath>
    <clipPath
       id="clipPath1756">
      <path
         clip-rule="nonzero"
         d="m 7,2 h 7 v 9.925781 H 7 Z m 0,0"
         id="path3540" />
    </clipPath>
    <clipPath
       id="clipPath2079">
      <path
         clip-rule="nonzero"
         d="m 14,1 h 3 v 10.925781 h -3 z m 0,0"
         id="path8198" />
    </clipPath>
    <clipPath
       id="clipPath8185">
      <path
         clip-rule="nonzero"
         d="m 44,1 h 3 v 10.925781 h -3 z m 0,0"
         id="path6777" />
    </clipPath>
    <clipPath
       id="clipPath5855">
      <path
         clip-rule="nonzero"
         d="M 0,0 H 12 V 7.488281 H 0 Z m 0,0"
         id="path6805" />
    </clipPath>
    <clipPath
       id="clipPath6070">
      <path
         clip-rule="nonzero"
         d="m 12,3 h 6 v 4.488281 h -6 z m 0,0"
         id="path6095" />
    </clipPath>
    <clipPath
       id="clipPath538">
      <path
         clip-rule="nonzero"
         d="M 0,0 H 12 V 7.488281 H 0 Z m 0,0"
         id="path8045" />
    </clipPath>
    <clipPath
       id="clipPath2574">
      <path
         clip-rule="nonzero"
         d="m 12,3 h 5 v 4.488281 h -5 z m 0,0"
         id="path4477" />
    </clipPath>
    <clipPath
       id="clipPath3129">
      <path
         clip-rule="nonzero"
         d="m 7,2 h 7 v 9.925781 H 7 Z m 0,0"
         id="path5751" />
    </clipPath>
    <clipPath
       id="clipPath983">
      <path
         clip-rule="nonzero"
         d="m 14,1 h 3 v 10.925781 h -3 z m 0,0"
         id="path2617" />
    </clipPath>
    <clipPath
       id="clipPath2273">
      <path
         clip-rule="nonzero"
         d="m 23,1 h 3 v 10.925781 h -3 z m 0,0"
         id="path3251" />
    </clipPath>
  </defs>
  <g
     inkscape:label="Layer 1"
     inkscape:groupmode="layer"
     id="layer1">
    <path
       style="fill:none;stroke:#000000;stroke-width:0.265;stroke-linecap:butt;stroke-linejoin:miter;stroke-dasharray:none;stroke-opacity:1;marker-end:url(#Arrow3)"
       d="M 22.093788,46.032405 H 73.624194"
       id="path397" />
    <path
       style="fill:none;stroke:#000000;stroke-width:0.264583px;stroke-linecap:butt;stroke-linejoin:miter;stroke-dasharray:0.264583, 0.264583;stroke-dashoffset:0;stroke-opacity:1;marker-mid:url(#Arrow3)"
       d="m 22.093788,45.03501 h 34.32353 17.206876"
       id="path397-7"
       sodipodi:nodetypes="ccc" />
    <path
       style="display:none;fill:none;stroke:#000000;stroke-width:0.264583px;stroke-linecap:butt;stroke-linejoin:miter;stroke-opacity:1"
       d="M 22.093788,47.0298 H 73.624194"
       id="path397-7-5"
       sodipodi:insensitive="true" />
    <path
       style="fill:none;stroke:#000000;stroke-width:0.264583px;stroke-linecap:butt;stroke-linejoin:miter;stroke-opacity:1;marker-end:url(#Arrow3)"
       d="M 47.805785,71.68302 V 20.152614"
       id="path397-6" />
    <g
       id="g3205"
       transform="matrix(0.6585123,0,0,0.6585123,14.963983,8.4681816)">
      <path
         style="fill:none;stroke:#000000;stroke-width:0.416089;stroke-linecap:butt;stroke-linejoin:miter;stroke-dasharray:none;stroke-opacity:1"
         d="m 70.685477,34.072725 2.082822,2.082822"
         id="path3174" />
      <path
         style="fill:none;stroke:#000000;stroke-width:0.416089;stroke-linecap:butt;stroke-linejoin:miter;stroke-dasharray:none;stroke-opacity:1"
         d="m 70.685477,36.155547 2.082822,-2.082822"
         id="path3174-3" />
    </g>
    <g
       id="g3205-5-9"
       transform="matrix(0.6585123,0,0,0.6585123,14.963983,26.503162)">
      <path
         style="fill:none;stroke:#000000;stroke-width:0.416089;stroke-linecap:butt;stroke-linejoin:miter;stroke-dasharray:none;stroke-opacity:1"
         d="m 70.685477,34.072725 2.082822,2.082822"
         id="path3174-6-1" />
      <path
         style="fill:none;stroke:#000000;stroke-width:0.416089;stroke-linecap:butt;stroke-linejoin:miter;stroke-dasharray:none;stroke-opacity:1"
         d="m 70.685477,36.155547 2.082822,-2.082822"
         id="path3174-3-2-2" />
    </g>
    <g
       id="g3205-5-9-3"
       transform="matrix(0.6585123,0,0,0.6585123,14.963983,35.804572)">
      <path
         style="fill:none;stroke:#000000;stroke-width:0.416089;stroke-linecap:butt;stroke-linejoin:miter;stroke-dasharray:none;stroke-opacity:1"
         d="m 70.685477,34.072725 2.082822,2.082822"
         id="path3174-6-1-6" />
      <path
         style="fill:none;stroke:#000000;stroke-width:0.416089;stroke-linecap:butt;stroke-linejoin:miter;stroke-dasharray:none;stroke-opacity:1"
         d="m 70.685477,36.155547 2.082822,-2.082822"
         id="path3174-3-2-2-7" />
    </g>
    <ellipse
       style="fill:#000000;fill-opacity:1;stroke:#000000;stroke-width:0.274;stroke-linejoin:round;stroke-miterlimit:3.9;stroke-dasharray:none;stroke-dashoffset:0"
       id="path3337"
       cx="62.197021"
       cy="40.608761"
       rx="0.37465414"
       ry="0.36173502" />
    <g
       inkscape:label=""
       transform="translate(68.221545,49.311462)"
       id="g4228">
      <g
         clip-path="url(#clipPath9331)"
         id="g16"
         transform="matrix(0.352778,0,0,0.352778,-2.4529399,-9.4592333)">
        <g
           fill="#000000"
           fill-opacity="1"
           id="g14">
          <g
             id="use12"
             transform="translate(0,4.289)">
            <path
               d="m 2.234375,-4.296875 c 0,-0.015625 0,-0.109375 -0.125,-0.109375 -0.234375,0 -0.96875,0.078125 -1.21875,0.09375 -0.078125,0.015625 -0.1875,0.03125 -0.1875,0.203125 0,0.125 0.078125,0.125 0.234375,0.125 0.484375,0 0.5,0.0625 0.5,0.171875 0,0.0625 -0.125,0.53125 -0.1875,0.796875 L 0.640625,-0.5625 C 0.59375,-0.421875 0.53125,-0.140625 0.53125,-0.125 0.53125,-0.015625 0.625,0 0.6875,0 h 0.140625 c 0.703125,-0.125 1.78125,-0.515625 2.8125,-1.46875 1.3125,-1.21875 1.578125,-2.578125 1.578125,-2.671875 0,-0.171875 -0.109375,-0.265625 -0.28125,-0.265625 -0.078125,0 -0.3125,0.046875 -0.390625,0.328125 -0.640625,2.265625 -2.15625,3.375 -3.296875,3.75 z m 0,0"
               id="path22" />
          </g>
        </g>
      </g>
    </g>
    <g
       inkscape:label=""
       transform="translate(65.956018,30.273867)"
       id="g4377">
      <g
         fill="#000000"
         fill-opacity="1"
         id="g23"
         transform="matrix(0.352778,0,0,0.352778,-0.187413,0.0245621)">
        <g
           id="g4361"
           transform="translate(0,6.5710001)">
          <path
             d="m 2.234375,-4.296875 c 0,-0.015625 0,-0.109375 -0.125,-0.109375 -0.234375,0 -0.96875,0.078125 -1.21875,0.09375 -0.078125,0.015625 -0.1875,0.03125 -0.1875,0.203125 0,0.125 0.078125,0.125 0.234375,0.125 0.484375,0 0.5,0.0625 0.5,0.171875 0,0.0625 -0.125,0.53125 -0.1875,0.796875 L 0.640625,-0.5625 C 0.59375,-0.421875 0.53125,-0.140625 0.53125,-0.125 0.53125,-0.015625 0.625,0 0.6875,0 h 0.140625 c 0.703125,-0.125 1.78125,-0.515625 2.8125,-1.46875 1.3125,-1.21875 1.578125,-2.578125 1.578125,-2.671875 0,-0.171875 -0.109375,-0.265625 -0.28125,-0.265625 -0.078125,0 -0.3125,0.046875 -0.390625,0.328125 -0.640625,2.265625 -2.15625,3.375 -3.296875,3.75 z m 0,0"
             id="path4359" />
        </g>
      </g>
      <g
         clip-path="url(#clipPath5232)"
         id="g29"
         transform="matrix(0.352778,0,0,0.352778,-0.187413,0.0245621)">
        <g
           fill="#000000"
           fill-opacity="1"
           id="g4367">
          <g
             id="use25"
             transform="translate(7.7690001,6.5710001)">
            <path
               d="m 4.078125,-2.296875 h 2.78125 C 7,-2.296875 7.1875,-2.296875 7.1875,-2.5 7.1875,-2.6875 7,-2.6875 6.859375,-2.6875 h -2.78125 v -2.796875 c 0,-0.140625 0,-0.328125 -0.203125,-0.328125 -0.203125,0 -0.203125,0.1875 -0.203125,0.328125 V -2.6875 h -2.78125 c -0.140625,0 -0.328125,0 -0.328125,0.1875 0,0.203125 0.1875,0.203125 0.328125,0.203125 h 2.78125 V 0.5 c 0,0.140625 0,0.328125 0.203125,0.328125 0.203125,0 0.203125,-0.1875 0.203125,-0.328125 z m 0,0"
               id="path4364" />
          </g>
        </g>
      </g>
      <g
         fill="#000000"
         fill-opacity="1"
         id="g4372"
         transform="matrix(0.352778,0,0,0.352778,-0.187413,0.0245621)">
        <g
           id="use31"
           transform="translate(17.729607,6.5710001)">
          <path
             d="m 1.265625,-0.765625 1.0625,-1.03125 c 1.546875,-1.375 2.140625,-1.90625 2.140625,-2.90625 0,-1.140625 -0.890625,-1.9375 -2.109375,-1.9375 -1.125,0 -1.859375,0.921875 -1.859375,1.8125 0,0.546875 0.5,0.546875 0.53125,0.546875 0.171875,0 0.515625,-0.109375 0.515625,-0.53125 0,-0.25 -0.1875,-0.515625 -0.53125,-0.515625 -0.078125,0 -0.09375,0 -0.125,0.015625 0.21875,-0.65625 0.765625,-1.015625 1.34375,-1.015625 0.90625,0 1.328125,0.8125 1.328125,1.625 C 3.5625,-3.90625 3.078125,-3.125 2.515625,-2.5 l -1.90625,2.125 C 0.5,-0.265625 0.5,-0.234375 0.5,0 H 4.203125 L 4.46875,-1.734375 H 4.234375 C 4.171875,-1.4375 4.109375,-1 4,-0.84375 3.9375,-0.765625 3.28125,-0.765625 3.0625,-0.765625 Z m 0,0"
             id="path51" />
        </g>
      </g>
      <g
         fill="#000000"
         fill-opacity="1"
         id="g37"
         transform="matrix(0.352778,0,0,0.352778,-0.187413,0.0245621)">
        <g
           id="use35"
           transform="translate(22.712999,6.5710001)">
          <path
             d="m 2.828125,-6.234375 c 0,-0.203125 -0.140625,-0.359375 -0.359375,-0.359375 -0.28125,0 -0.546875,0.265625 -0.546875,0.53125 0,0.1875 0.140625,0.359375 0.375,0.359375 0.234375,0 0.53125,-0.234375 0.53125,-0.53125 z m -0.75,3.75 c 0.109375,-0.28125 0.109375,-0.3125 0.21875,-0.578125 0.078125,-0.203125 0.125,-0.34375 0.125,-0.53125 0,-0.4375 -0.3125,-0.8125 -0.8125,-0.8125 -0.9375,0 -1.3125,1.453125 -1.3125,1.53125 0,0.109375 0.09375,0.109375 0.109375,0.109375 0.109375,0 0.109375,-0.03125 0.15625,-0.1875 0.28125,-0.9375 0.671875,-1.234375 1.015625,-1.234375 0.078125,0 0.25,0 0.25,0.3125 0,0.21875 -0.078125,0.421875 -0.109375,0.53125 -0.078125,0.25 -0.53125,1.40625 -0.6875,1.84375 -0.109375,0.25 -0.234375,0.578125 -0.234375,0.796875 0,0.46875 0.34375,0.8125 0.8125,0.8125 0.9375,0 1.3125,-1.4375 1.3125,-1.53125 0,-0.109375 -0.09375,-0.109375 -0.125,-0.109375 -0.09375,0 -0.09375,0.03125 -0.140625,0.1875 -0.1875,0.625 -0.515625,1.234375 -1.015625,1.234375 -0.171875,0 -0.25,-0.09375 -0.25,-0.328125 0,-0.25 0.0625,-0.390625 0.296875,-1 z m 0,0"
             id="path55" />
        </g>
      </g>
    </g>
    <g
       id="g3205-5-9-3-5"
       transform="matrix(0.6585123,0,0,0.6585123,14.963983,45.105983)">
      <path
         style="fill:none;stroke:#000000;stroke-width:0.416089;stroke-linecap:butt;stroke-linejoin:miter;stroke-dasharray:none;stroke-opacity:1"
         d="m 70.685477,34.072725 2.082822,2.082822"
         id="path3174-6-1-6-3" />
      <path
         style="fill:none;stroke:#000000;stroke-width:0.416089;stroke-linecap:butt;stroke-linejoin:miter;stroke-dasharray:none;stroke-opacity:1"
         d="m 70.685477,36.155547 2.082822,-2.082822"
         id="path3174-3-2-2-7-5" />
    </g>
    <g
       inkscape:label=""
       transform="translate(65.956018,48.435627)"
       id="g2876">
      <g
         fill="#000000"
         fill-opacity="1"
         id="g20"
         transform="matrix(0.352778,0,0,0.352778,-0.187413,0.0245621)">
        <g
           id="use18"
           transform="translate(0,6.5710001)">
          <path
             d="m 2.234375,-4.296875 c 0,-0.015625 0,-0.109375 -0.125,-0.109375 -0.234375,0 -0.96875,0.078125 -1.21875,0.09375 -0.078125,0.015625 -0.1875,0.03125 -0.1875,0.203125 0,0.125 0.078125,0.125 0.234375,0.125 0.484375,0 0.5,0.0625 0.5,0.171875 0,0.0625 -0.125,0.53125 -0.1875,0.796875 L 0.640625,-0.5625 C 0.59375,-0.421875 0.53125,-0.140625 0.53125,-0.125 0.53125,-0.015625 0.625,0 0.6875,0 h 0.140625 c 0.703125,-0.125 1.78125,-0.515625 2.8125,-1.46875 1.3125,-1.21875 1.578125,-2.578125 1.578125,-2.671875 0,-0.171875 -0.109375,-0.265625 -0.28125,-0.265625 -0.078125,0 -0.3125,0.046875 -0.390625,0.328125 -0.640625,2.265625 -2.15625,3.375 -3.296875,3.75 z m 0,0"
             id="path38" />
        </g>
      </g>
      <g
         fill="#000000"
         fill-opacity="1"
         id="g24"
         transform="matrix(0.352778,0,0,0.352778,-0.187413,0.0245621)">
        <g
           id="use22"
           transform="translate(7.7690001,6.5710001)">
          <path
             d="m 6.5625,-2.296875 c 0.171875,0 0.359375,0 0.359375,-0.203125 0,-0.1875 -0.1875,-0.1875 -0.359375,-0.1875 H 1.171875 c -0.171875,0 -0.34375,0 -0.34375,0.1875 0,0.203125 0.171875,0.203125 0.34375,0.203125 z m 0,0"
             id="path42" />
        </g>
      </g>
      <g
         fill="#000000"
         fill-opacity="1"
         id="g28"
         transform="matrix(0.352778,0,0,0.352778,-0.187413,0.0245621)">
        <g
           id="use26"
           transform="translate(17.732,6.5710001)">
          <path
             d="m 1.265625,-0.765625 1.0625,-1.03125 c 1.546875,-1.375 2.140625,-1.90625 2.140625,-2.90625 0,-1.140625 -0.890625,-1.9375 -2.109375,-1.9375 -1.125,0 -1.859375,0.921875 -1.859375,1.8125 0,0.546875 0.5,0.546875 0.53125,0.546875 0.171875,0 0.515625,-0.109375 0.515625,-0.53125 0,-0.25 -0.1875,-0.515625 -0.53125,-0.515625 -0.078125,0 -0.09375,0 -0.125,0.015625 0.21875,-0.65625 0.765625,-1.015625 1.34375,-1.015625 0.90625,0 1.328125,0.8125 1.328125,1.625 C 3.5625,-3.90625 3.078125,-3.125 2.515625,-2.5 l -1.90625,2.125 C 0.5,-0.265625 0.5,-0.234375 0.5,0 H 4.203125 L 4.46875,-1.734375 H 4.234375 C 4.171875,-1.4375 4.109375,-1 4,-0.84375 3.9375,-0.765625 3.28125,-0.765625 3.0625,-0.765625 Z m 0,0"
             id="path46" />
        </g>
      </g>
      <g
         fill="#000000"
         fill-opacity="1"
         id="g32"
         transform="matrix(0.352778,0,0,0.352778,-0.187413,0.0245621)">
        <g
           id="use30"
           transform="translate(22.712999,6.5710001)">
          <path
             d="m 2.828125,-6.234375 c 0,-0.203125 -0.140625,-0.359375 -0.359375,-0.359375 -0.28125,0 -0.546875,0.265625 -0.546875,0.53125 0,0.1875 0.140625,0.359375 0.375,0.359375 0.234375,0 0.53125,-0.234375 0.53125,-0.53125 z m -0.75,3.75 c 0.109375,-0.28125 0.109375,-0.3125 0.21875,-0.578125 0.078125,-0.203125 0.125,-0.34375 0.125,-0.53125 0,-0.4375 -0.3125,-0.8125 -0.8125,-0.8125 -0.9375,0 -1.3125,1.453125 -1.3125,1.53125 0,0.109375 0.09375,0.109375 0.109375,0.109375 0.109375,0 0.109375,-0.03125 0.15625,-0.1875 0.28125,-0.9375 0.671875,-1.234375 1.015625,-1.234375 0.078125,0 0.25,0 0.25,0.3125 0,0.21875 -0.078125,0.421875 -0.109375,0.53125 -0.078125,0.25 -0.53125,1.40625 -0.6875,1.84375 -0.109375,0.25 -0.234375,0.578125 -0.234375,0.796875 0,0.46875 0.34375,0.8125 0.8125,0.8125 0.9375,0 1.3125,-1.4375 1.3125,-1.53125 0,-0.109375 -0.09375,-0.109375 -0.125,-0.109375 -0.09375,0 -0.09375,0.03125 -0.140625,0.1875 -0.1875,0.625 -0.515625,1.234375 -1.015625,1.234375 -0.171875,0 -0.25,-0.09375 -0.25,-0.328125 0,-0.25 0.0625,-0.390625 0.296875,-1 z m 0,0"
             id="path50" />
        </g>
      </g>
    </g>
    <g
       inkscape:label=""
       transform="translate(44.409966,15.712547)"
       id="g3200">
      <g
         clip-path="url(#clipPath5855)"
         id="g30"
         transform="matrix(0.352778,0,0,0.352778,-0.0992187,0.00551215)">
        <g
           fill="#000000"
           fill-opacity="1"
           id="g3190">
          <g
             id="use24"
             transform="translate(0,7.4899998)">
            <path
               d="M 2.25,-6.03125 C 2.25,-6.390625 2.265625,-6.5 3.0625,-6.5 h 0.25 v -0.3125 c -0.34375,0.03125 -1.125,0.03125 -1.515625,0.03125 -0.375,0 -1.171875,0 -1.515625,-0.03125 V -6.5 h 0.25 c 0.796875,0 0.828125,0.109375 0.828125,0.46875 v 5.25 c 0,0.359375 -0.03125,0.46875 -0.828125,0.46875 h -0.25 V 0 c 0.34375,-0.03125 1.140625,-0.03125 1.515625,-0.03125 0.390625,0 1.171875,0 1.515625,0.03125 v -0.3125 h -0.25 C 2.265625,-0.3125 2.25,-0.421875 2.25,-0.78125 Z m 0,0"
               id="path3183" />
          </g>
          <g
             id="g3188"
             transform="translate(3.5974951,7.4899998)">
            <path
               d="M 1.09375,-3.421875 V -0.75 c 0,0.4375 -0.109375,0.4375 -0.78125,0.4375 V 0 c 0.359375,-0.015625 0.859375,-0.03125 1.140625,-0.03125 0.25,0 0.765625,0.015625 1.109375,0.03125 v -0.3125 c -0.671875,0 -0.78125,0 -0.78125,-0.4375 V -2.59375 C 1.78125,-3.625 2.5,-4.1875 3.125,-4.1875 c 0.640625,0 0.75,0.53125 0.75,1.109375 V -0.75 c 0,0.4375 -0.109375,0.4375 -0.78125,0.4375 V 0 c 0.34375,-0.015625 0.859375,-0.03125 1.125,-0.03125 0.25,0 0.78125,0.015625 1.109375,0.03125 v -0.3125 c -0.65625,0 -0.765625,0 -0.765625,-0.4375 v -1.84375 c 0,-1.03125 0.703125,-1.59375 1.34375,-1.59375 0.625,0 0.734375,0.53125 0.734375,1.109375 V -0.75 c 0,0.4375 -0.109375,0.4375 -0.78125,0.4375 V 0 c 0.34375,-0.015625 0.859375,-0.03125 1.125,-0.03125 0.265625,0 0.78125,0.015625 1.125,0.03125 v -0.3125 c -0.515625,0 -0.765625,0 -0.78125,-0.296875 v -1.90625 c 0,-0.859375 0,-1.15625 -0.3125,-1.515625 -0.140625,-0.171875 -0.46875,-0.375 -1.046875,-0.375 -0.828125,0 -1.28125,0.59375 -1.4375,0.984375 C 4.390625,-4.296875 3.65625,-4.40625 3.203125,-4.40625 2.46875,-4.40625 2,-3.984375 1.71875,-3.359375 V -4.40625 L 0.3125,-4.296875 v 0.3125 c 0.703125,0 0.78125,0.0625 0.78125,0.5625 z m 0,0"
               id="path3186" />
          </g>
        </g>
      </g>
      <g
         clip-path="url(#clipPath6070)"
         id="g36"
         transform="matrix(0.352778,0,0,0.352778,-0.0992187,0.00551215)">
        <g
           fill="#000000"
           fill-opacity="1"
           id="g34">
          <g
             id="use32"
             transform="translate(11.9,7.4899998)">
            <path
               d="m 2.234375,-4.296875 c 0,-0.015625 0,-0.109375 -0.125,-0.109375 -0.234375,0 -0.96875,0.078125 -1.21875,0.09375 -0.078125,0.015625 -0.1875,0.03125 -0.1875,0.203125 0,0.125 0.078125,0.125 0.234375,0.125 0.484375,0 0.5,0.0625 0.5,0.171875 0,0.0625 -0.125,0.53125 -0.1875,0.796875 L 0.640625,-0.5625 C 0.59375,-0.421875 0.53125,-0.140625 0.53125,-0.125 0.53125,-0.015625 0.625,0 0.6875,0 h 0.140625 c 0.703125,-0.125 1.78125,-0.515625 2.8125,-1.46875 1.3125,-1.21875 1.578125,-2.578125 1.578125,-2.671875 0,-0.171875 -0.109375,-0.265625 -0.28125,-0.265625 -0.078125,0 -0.3125,0.046875 -0.390625,0.328125 -0.640625,2.265625 -2.15625,3.375 -3.296875,3.75 z m 0,0"
               id="path54" />
          </g>
        </g>
      </g>
      <g
         fill="#000000"
         fill-opacity="1"
         id="g40"
         transform="matrix(0.352778,0,0,0.352778,-0.0992187,0.00551215)">
        <g
           id="use38"
           transform="translate(17.455,3.875)">
          <path
             d="m 2.015625,-3.296875 c 0.0625,-0.109375 0.0625,-0.171875 0.0625,-0.21875 0,-0.21875 -0.1875,-0.375 -0.40625,-0.375 -0.265625,0 -0.34375,0.21875 -0.375,0.328125 L 0.375,-0.546875 c -0.015625,0.015625 -0.046875,0.09375 -0.046875,0.109375 0,0.078125 0.21875,0.15625 0.28125,0.15625 0.046875,0 0.046875,-0.015625 0.09375,-0.125 z m 0,0"
             id="path58" />
        </g>
      </g>
    </g>
    <g
       inkscape:label=""
       transform="translate(76.699,44.708799)"
       id="g3552">
      <g
         clip-path="url(#clipPath538)"
         id="g3536"
         transform="matrix(0.352778,0,0,0.352778,-0.121267,0.00551215)">
        <g
           fill="#000000"
           fill-opacity="1"
           id="g3534">
          <g
             id="g3528"
             transform="translate(0,7.4899998)">
            <path
               d="M 2.234375,-3.515625 V -6.09375 c 0,-0.234375 0,-0.359375 0.21875,-0.390625 C 2.546875,-6.5 2.84375,-6.5 3.046875,-6.5 c 0.890625,0 2,0.046875 2,1.484375 0,0.6875 -0.234375,1.5 -1.703125,1.5 z m 2.109375,0.125 C 5.296875,-3.625 6.078125,-4.234375 6.078125,-5.015625 6.078125,-5.96875 4.9375,-6.8125 3.484375,-6.8125 H 0.34375 V -6.5 h 0.25 c 0.765625,0 0.78125,0.109375 0.78125,0.46875 v 5.25 c 0,0.359375 -0.015625,0.46875 -0.78125,0.46875 h -0.25 V 0 c 0.359375,-0.03125 1.078125,-0.03125 1.453125,-0.03125 0.390625,0 1.109375,0 1.46875,0.03125 v -0.3125 h -0.25 c -0.765625,0 -0.78125,-0.109375 -0.78125,-0.46875 V -3.296875 H 3.375 c 0.15625,0 0.578125,0 0.9375,0.34375 0.375,0.34375 0.375,0.65625 0.375,1.328125 0,0.640625 0,1.046875 0.40625,1.421875 0.40625,0.359375 0.953125,0.421875 1.25,0.421875 0.78125,0 0.953125,-0.8125 0.953125,-1.09375 0,-0.0625 0,-0.171875 -0.125,-0.171875 -0.109375,0 -0.109375,0.09375 -0.125,0.15625 C 6.984375,-0.171875 6.640625,0 6.390625,0 5.90625,0 5.828125,-0.515625 5.6875,-1.4375 L 5.546875,-2.234375 C 5.375,-2.875 4.890625,-3.203125 4.34375,-3.390625 Z m 0,0"
               id="path3526" />
          </g>
          <g
             id="g3532"
             transform="translate(7.3334699,7.4899998)">
            <path
               d="M 1.109375,-2.515625 C 1.171875,-4 2.015625,-4.25 2.359375,-4.25 c 1.015625,0 1.125,1.34375 1.125,1.734375 z m 0,0.21875 h 2.78125 c 0.21875,0 0.25,0 0.25,-0.21875 0,-0.984375 -0.546875,-1.953125 -1.78125,-1.953125 -1.15625,0 -2.078125,1.03125 -2.078125,2.28125 0,1.328125 1.046875,2.296875 2.1875,2.296875 C 3.6875,0.109375 4.140625,-1 4.140625,-1.1875 4.140625,-1.28125 4.0625,-1.3125 4,-1.3125 c -0.078125,0 -0.109375,0.0625 -0.125,0.140625 -0.34375,1.03125 -1.25,1.03125 -1.34375,1.03125 -0.5,0 -0.890625,-0.296875 -1.125,-0.671875 -0.296875,-0.46875 -0.296875,-1.125 -0.296875,-1.484375 z m 0,0"
               id="path3530" />
          </g>
        </g>
      </g>
      <g
         clip-path="url(#clipPath2574)"
         id="g3544"
         transform="matrix(0.352778,0,0,0.352778,-0.121267,0.00551215)">
        <g
           fill="#000000"
           fill-opacity="1"
           id="g3542">
          <g
             id="g3540"
             transform="translate(11.761,7.4899998)">
            <path
               d="m 2.234375,-4.296875 c 0,-0.015625 0,-0.109375 -0.125,-0.109375 -0.234375,0 -0.96875,0.078125 -1.21875,0.09375 -0.078125,0.015625 -0.1875,0.03125 -0.1875,0.203125 0,0.125 0.078125,0.125 0.234375,0.125 0.484375,0 0.5,0.0625 0.5,0.171875 0,0.0625 -0.125,0.53125 -0.1875,0.796875 L 0.640625,-0.5625 C 0.59375,-0.421875 0.53125,-0.140625 0.53125,-0.125 0.53125,-0.015625 0.625,0 0.6875,0 h 0.140625 c 0.703125,-0.125 1.78125,-0.515625 2.8125,-1.46875 1.3125,-1.21875 1.578125,-2.578125 1.578125,-2.671875 0,-0.171875 -0.109375,-0.265625 -0.28125,-0.265625 -0.078125,0 -0.3125,0.046875 -0.390625,0.328125 -0.640625,2.265625 -2.15625,3.375 -3.296875,3.75 z m 0,0"
               id="path3538" />
          </g>
        </g>
      </g>
      <g
         fill="#000000"
         fill-opacity="1"
         id="g3550"
         transform="matrix(0.352778,0,0,0.352778,-0.121267,0.00551215)">
        <g
           id="g3548"
           transform="translate(17.316999,3.875)">
          <path
             d="m 2.015625,-3.296875 c 0.0625,-0.109375 0.0625,-0.171875 0.0625,-0.21875 0,-0.21875 -0.1875,-0.375 -0.40625,-0.375 -0.265625,0 -0.34375,0.21875 -0.375,0.328125 L 0.375,-0.546875 c -0.015625,0.015625 -0.046875,0.09375 -0.046875,0.109375 0,0.078125 0.21875,0.15625 0.28125,0.15625 0.046875,0 0.046875,-0.015625 0.09375,-0.125 z m 0,0"
             id="path3546" />
        </g>
      </g>
    </g>
    <g
       id="g3205-5-9-3-5-6"
       transform="matrix(0.6585123,0,0,0.6585123,14.963983,-0.833229)">
      <path
         style="fill:none;stroke:#000000;stroke-width:0.416089;stroke-linecap:butt;stroke-linejoin:miter;stroke-dasharray:none;stroke-opacity:1"
         d="m 70.685477,34.072725 2.082822,2.082822"
         id="path3174-6-1-6-3-2" />
      <path
         style="fill:none;stroke:#000000;stroke-width:0.416089;stroke-linecap:butt;stroke-linejoin:miter;stroke-dasharray:none;stroke-opacity:1"
         d="m 70.685477,36.155547 2.082822,-2.082822"
         id="path3174-3-2-2-7-5-9" />
    </g>
    <g
       inkscape:label=""
       transform="translate(43.261982,73.173789)"
       id="g910">
      <g
         fill="#000000"
         fill-opacity="1"
         id="g35"
         transform="matrix(0.352778,0,0,0.352778,-0.0606337,0.00136694)">
        <g
           id="use33"
           transform="translate(2.283,6.9180002)">
          <path
             d="M 2.5,-6.921875 1.15625,-5.5625 1.328125,-5.390625 2.5,-6.40625 3.640625,-5.390625 3.8125,-5.5625 Z m 0,0"
             id="path67" />
        </g>
      </g>
      <g
         fill="#000000"
         fill-opacity="1"
         id="g39"
         transform="matrix(0.352778,0,0,0.352778,-0.0606337,0.00136694)">
        <g
           id="use37"
           transform="translate(0,9.4359999)">
          <path
             d="m 1.140625,-2.1875 c 0.125,-0.046875 0.46875,-0.265625 0.46875,-0.40625 0,-0.0625 -0.046875,-0.0625 -0.109375,-0.0625 -0.34375,0 -1.328125,0.421875 -1.328125,1.421875 0,0.71875 0.8125,1.453125 2.03125,1.453125 1.625,0 3.515625,-1.125 3.515625,-2.484375 0,-0.9375 -1,-1.40625 -1.8125,-1.765625 C 3.203125,-4.34375 2.75,-4.75 2.75,-5.328125 2.75,-5.53125 2.84375,-5.921875 3.15625,-6.1875 3.453125,-6.453125 4,-6.484375 4.140625,-6.484375 c 0.109375,0 0.53125,0.015625 0.96875,0.203125 0.1875,0.09375 0.4375,0.203125 0.4375,0.640625 0,0.140625 0,0.1875 -0.03125,0.296875 C 5.5,-5.3125 5.5,-5.28125 5.5,-5.25 c 0,0.078125 0.046875,0.078125 0.09375,0.078125 0.125,0 0.375,-0.109375 0.5625,-0.265625 0.140625,-0.109375 0.25,-0.234375 0.25,-0.625 0,-0.484375 -0.265625,-0.625 -0.53125,-0.75 -0.46875,-0.21875 -0.9375,-0.21875 -1.0625,-0.21875 -1.3125,0 -2.90625,1 -2.90625,2.140625 0,0.828125 0.859375,1.234375 1.34375,1.4375 0.703125,0.328125 1.609375,0.78125 1.609375,1.625 0,0.65625 -0.484375,1.5 -2,1.5 -1.015625,0 -1.828125,-0.65625 -1.828125,-1.34375 0,-0.171875 0.046875,-0.359375 0.109375,-0.515625 z m 0,0"
             id="path71" />
        </g>
      </g>
      <g
         clip-path="url(#clipPath3129)"
         id="g45"
         transform="matrix(0.352778,0,0,0.352778,-0.0606337,0.00136694)">
        <g
           fill="#000000"
           fill-opacity="1"
           id="g43">
          <g
             id="use41"
             transform="translate(6.7800002,9.4359999)">
            <path
               d="m 4.8125,-6.65625 c 0,-0.046875 0.015625,-0.109375 0.015625,-0.15625 0,-0.09375 -0.0625,-0.109375 -0.109375,-0.109375 -0.109375,0 -0.109375,0.03125 -0.15625,0.203125 L 2.90625,-0.125 c -0.75,-0.09375 -1.125,-0.46875 -1.125,-1.125 0,-0.203125 0,-0.453125 0.53125,-1.84375 0.046875,-0.125 0.109375,-0.296875 0.109375,-0.5 0,-0.4375 -0.3125,-0.8125 -0.8125,-0.8125 -0.953125,0 -1.3125,1.453125 -1.3125,1.53125 0,0.109375 0.09375,0.109375 0.109375,0.109375 0.109375,0 0.109375,-0.03125 0.15625,-0.1875 0.28125,-0.9375 0.671875,-1.234375 1.015625,-1.234375 0.078125,0 0.25,0 0.25,0.3125 0,0.265625 -0.109375,0.515625 -0.234375,0.859375 C 1.109375,-1.75 1.109375,-1.5 1.109375,-1.328125 1.109375,-0.375 1.890625,0.03125 2.84375,0.09375 2.765625,0.453125 2.765625,0.46875 2.625,1 2.609375,1.109375 2.40625,1.90625 2.40625,1.9375 c 0,0.015625 0,0.109375 0.109375,0.109375 0.03125,0 0.078125,0 0.09375,-0.046875 0.03125,-0.015625 0.09375,-0.265625 0.125,-0.40625 l 0.375,-1.484375 c 0.375,0 1.25,0 2.1875,-1.0625 0.40625,-0.46875 0.609375,-0.90625 0.71875,-1.203125 0.09375,-0.25 0.3125,-1.109375 0.3125,-1.546875 0,-0.5625 -0.265625,-0.703125 -0.4375,-0.703125 -0.25,0 -0.5,0.265625 -0.5,0.484375 0,0.125 0.0625,0.1875 0.15625,0.265625 0.109375,0.109375 0.359375,0.359375 0.359375,0.84375 0,0.640625 -0.515625,1.453125 -0.875,1.8125 -0.875,0.890625 -1.515625,0.890625 -1.875,0.890625 z m 0,0"
               id="path75" />
          </g>
        </g>
      </g>
      <g
         clip-path="url(#clipPath983)"
         id="g51"
         transform="matrix(0.352778,0,0,0.352778,-0.0606337,0.00136694)">
        <g
           fill="#000000"
           fill-opacity="1"
           id="g49">
          <g
             id="use47"
             transform="translate(13.627,9.4359999)">
            <path
               d="m 3.296875,2.390625 c 0,-0.03125 0,-0.046875 -0.171875,-0.21875 C 1.890625,0.921875 1.5625,-0.96875 1.5625,-2.5 c 0,-1.734375 0.375,-3.46875 1.609375,-4.703125 0.125,-0.125 0.125,-0.140625 0.125,-0.171875 0,-0.078125 -0.03125,-0.109375 -0.09375,-0.109375 -0.109375,0 -1,0.6875 -1.59375,1.953125 -0.5,1.09375 -0.625,2.203125 -0.625,3.03125 0,0.78125 0.109375,1.984375 0.65625,3.125 C 2.25,1.84375 3.09375,2.5 3.203125,2.5 c 0.0625,0 0.09375,-0.03125 0.09375,-0.109375 z m 0,0"
               id="path79" />
          </g>
        </g>
      </g>
      <g
         fill="#000000"
         fill-opacity="1"
         id="g55"
         transform="matrix(0.352778,0,0,0.352778,-0.0606337,0.00136694)">
        <g
           id="use53"
           transform="translate(17.500999,9.4359999)">
          <path
             d="m 2.234375,-4.296875 c 0,-0.015625 0,-0.109375 -0.125,-0.109375 -0.234375,0 -0.96875,0.078125 -1.21875,0.09375 -0.078125,0.015625 -0.1875,0.03125 -0.1875,0.203125 0,0.125 0.078125,0.125 0.234375,0.125 0.484375,0 0.5,0.0625 0.5,0.171875 0,0.0625 -0.125,0.53125 -0.1875,0.796875 L 0.640625,-0.5625 C 0.59375,-0.421875 0.53125,-0.140625 0.53125,-0.125 0.53125,-0.015625 0.625,0 0.6875,0 h 0.140625 c 0.703125,-0.125 1.78125,-0.515625 2.8125,-1.46875 1.3125,-1.21875 1.578125,-2.578125 1.578125,-2.671875 0,-0.171875 -0.109375,-0.265625 -0.28125,-0.265625 -0.078125,0 -0.3125,0.046875 -0.390625,0.328125 -0.640625,2.265625 -2.15625,3.375 -3.296875,3.75 z m 0,0"
             id="path83" />
        </g>
      </g>
      <g
         clip-path="url(#clipPath2273)"
         id="g61"
         transform="matrix(0.352778,0,0,0.352778,-0.0606337,0.00136694)">
        <g
           fill="#000000"
           fill-opacity="1"
           id="g59">
          <g
             id="use57"
             transform="translate(23.056999,9.4359999)">
            <path
               d="m 2.875,-2.5 c 0,-0.765625 -0.109375,-1.96875 -0.65625,-3.109375 -0.59375,-1.21875 -1.453125,-1.875 -1.546875,-1.875 -0.0625,0 -0.109375,0.046875 -0.109375,0.109375 0,0.03125 0,0.046875 0.1875,0.234375 0.984375,0.984375 1.546875,2.5625 1.546875,4.640625 0,1.71875 -0.359375,3.46875 -1.59375,4.71875 C 0.5625,2.34375 0.5625,2.359375 0.5625,2.390625 0.5625,2.453125 0.609375,2.5 0.671875,2.5 0.765625,2.5 1.671875,1.8125 2.25,0.546875 2.765625,-0.546875 2.875,-1.65625 2.875,-2.5 Z m 0,0"
               id="path87" />
          </g>
        </g>
      </g>
    </g>
  </g>
</svg>
